<mxfile host="65bd71144e">
    <diagram id="xL4w_sx_mx3ZKPY31I3g" name="Page-1">
        <mxGraphModel dx="1130" dy="391" grid="1" gridSize="10" guides="1" tooltips="1" connect="1" arrows="1" fold="1" page="1" pageScale="1" pageWidth="850" pageHeight="1100" math="0" shadow="0">
            <root>
                <mxCell id="0"/>
                <mxCell id="1" parent="0"/>
                <mxCell id="82" value="Horizontal Flow Layout" style="swimlane;html=1;startSize=20;horizontal=0;childLayout=flowLayout;flowOrientation=west;resizable=0;interRankCellSpacing=50;containerType=tree;fontSize=12;" vertex="1" parent="1">
                    <mxGeometry x="190" y="130" width="460" height="150" as="geometry"/>
                </mxCell>
                <mxCell id="83" value="Start" style="whiteSpace=wrap;html=1;" vertex="1" parent="82">
                    <mxGeometry x="40" y="55" width="100" height="40" as="geometry"/>
                </mxCell>
                <mxCell id="84" value="Task" style="whiteSpace=wrap;html=1;" vertex="1" parent="82">
                    <mxGeometry x="190" y="20" width="100" height="40" as="geometry"/>
                </mxCell>
                <mxCell id="85" value="" style="html=1;rounded=1;curved=0;sourcePerimeterSpacing=0;targetPerimeterSpacing=0;startSize=6;endSize=6;noEdgeStyle=1;orthogonal=1;" edge="1" parent="82" source="83" target="84">
                    <mxGeometry relative="1" as="geometry">
                        <Array as="points">
                            <mxPoint x="152" y="67.5"/>
                            <mxPoint x="178" y="40"/>
                        </Array>
                    </mxGeometry>
                </mxCell>
                <mxCell id="86" value="Task" style="whiteSpace=wrap;html=1;" vertex="1" parent="82">
                    <mxGeometry x="190" y="90" width="100" height="40" as="geometry"/>
                </mxCell>
                <mxCell id="87" value="" style="html=1;rounded=1;curved=0;sourcePerimeterSpacing=0;targetPerimeterSpacing=0;startSize=6;endSize=6;noEdgeStyle=1;orthogonal=1;" edge="1" parent="82" source="83" target="86">
                    <mxGeometry relative="1" as="geometry">
                        <Array as="points">
                            <mxPoint x="152" y="82.5"/>
                            <mxPoint x="178" y="110"/>
                        </Array>
                    </mxGeometry>
                </mxCell>
                <mxCell id="88" value="End" style="whiteSpace=wrap;html=1;" vertex="1" parent="82">
                    <mxGeometry x="340" y="55" width="100" height="40" as="geometry"/>
                </mxCell>
                <mxCell id="89" value="" style="html=1;rounded=1;curved=0;sourcePerimeterSpacing=0;targetPerimeterSpacing=0;startSize=6;endSize=6;noEdgeStyle=1;orthogonal=1;" edge="1" parent="82" source="84" target="88">
                    <mxGeometry relative="1" as="geometry">
                        <Array as="points">
                            <mxPoint x="302" y="40"/>
                            <mxPoint x="328" y="67.5"/>
                        </Array>
                    </mxGeometry>
                </mxCell>
                <mxCell id="90" value="" style="html=1;rounded=1;curved=0;sourcePerimeterSpacing=0;targetPerimeterSpacing=0;startSize=6;endSize=6;noEdgeStyle=1;orthogonal=1;" edge="1" parent="82" source="86" target="88">
                    <mxGeometry relative="1" as="geometry">
                        <Array as="points">
                            <mxPoint x="302" y="110"/>
                            <mxPoint x="328" y="82.5"/>
                        </Array>
                    </mxGeometry>
                </mxCell>
            </root>
        </mxGraphModel>
    </diagram>
</mxfile>